<?xml version="1.0" encoding="utf-8"?>
<!-- Generator: Adobe Illustrator 15.0.0, SVG Export Plug-In . SVG Version: 6.00 Build 0)  -->
<!DOCTYPE svg PUBLIC "-//W3C//DTD SVG 1.1//EN" "http://www.w3.org/Graphics/SVG/1.1/DTD/svg11.dtd">
<svg version="1.1" id="图层_1" xmlns="http://www.w3.org/2000/svg" xmlns:xlink="http://www.w3.org/1999/xlink" x="0px" y="0px"
	 width="48px" height="48px" viewBox="0 0 48 48" enable-background="new 0 0 48 48" xml:space="preserve">
<path d="M33.934,26.48c0.293,0,0.529-0.364,0.529-0.813v-1.194h2.346c0.293,0,0.529-0.238,0.529-0.527
	c0-0.291-0.236-0.529-0.529-0.529h-2.347v-1.241h2.058c0.449,0,0.815-0.238,0.815-0.528s-0.367-0.527-0.815-0.527h-1.535
	l1.938-2.306c0.177-0.208,0.271-0.469,0.254-0.678c-0.01-0.124-0.057-0.218-0.135-0.286c-0.074-0.063-0.173-0.076-0.241-0.076
	c-0.234,0-0.504,0.142-0.688,0.361l-2.1,2.5l-2.104-2.5c-0.184-0.218-0.453-0.361-0.688-0.361c-0.068,0-0.168,0.014-0.244,0.077
	c-0.078,0.065-0.123,0.161-0.135,0.284c-0.019,0.21,0.08,0.47,0.258,0.679l1.938,2.306h-1.692c-0.449,0-0.816,0.238-0.816,0.527
	c0,0.292,0.367,0.529,0.816,0.529h2.059v1.24h-2.342c-0.293,0-0.53,0.238-0.53,0.529c0,0.291,0.237,0.527,0.53,0.527h2.344v1.194
	C33.402,26.116,33.641,26.48,33.934,26.48z"/>
<path d="M42.176,18.492c-0.449-1.066-1.094-2.021-1.917-2.843c-0.821-0.821-1.776-1.467-2.845-1.917
	c-1.102-0.467-2.273-0.703-3.48-0.703s-2.381,0.237-3.48,0.703c-1.066,0.451-2.021,1.096-2.846,1.917
	c-0.82,0.822-1.467,1.778-1.918,2.843c-0.467,1.104-0.705,2.275-0.705,3.483s0.238,2.38,0.705,3.482
	c0.451,1.064,1.096,2.021,1.918,2.844c0.822,0.821,1.776,1.467,2.846,1.918c1.102,0.467,2.273,0.703,3.48,0.703
	s2.379-0.236,3.48-0.703c1.066-0.451,2.021-1.096,2.845-1.918c0.821-0.82,1.468-1.777,1.917-2.844
	c0.469-1.104,0.703-2.273,0.703-3.482C42.881,20.768,42.645,19.596,42.176,18.492z M33.934,29.958c-4.4,0-7.98-3.582-7.98-7.983
	s3.581-7.982,7.98-7.982c4.403,0,7.983,3.581,7.983,7.982S38.335,29.958,33.934,29.958z"/>
</svg>
