<?xml version="1.0" standalone="no"?><!DOCTYPE svg PUBLIC "-//W3C//DTD SVG 1.1//EN" "http://www.w3.org/Graphics/SVG/1.1/DTD/svg11.dtd"><svg t="1486370214884" class="icon" style="" viewBox="0 0 1024 1024" version="1.1" xmlns="http://www.w3.org/2000/svg" p-id="10705" xmlns:xlink="http://www.w3.org/1999/xlink" width="200" height="200"><defs><style type="text/css"></style></defs><path d="M1003.5 730.444c-10.064 0-18.204 8.141-18.204 18.204v109.222c0 50.169-40.836 91.019-91.019 91.019h-109.222c-10.064 0-18.204 8.141-18.204 18.204s8.14 18.204 18.204 18.204h109.222c70.256 0 127.425-57.171 127.425-127.425v-109.222c0-10.063-8.141-18.204-18.204-18.204zM20.5 293.565c10.053 0 18.204-8.16 18.204-18.204v-109.231c0-50.186 40.834-91.019 91.019-91.019h109.222c10.053 0 18.204-8.151 18.204-18.204s-8.151-18.204-18.204-18.204h-109.222c-70.266 0-127.425 57.161-127.425 127.425v109.231c0 10.045 8.151 18.204 18.204 18.204zM238.945 948.889h-109.222c-50.186 0-91.019-40.851-91.019-91.019v-109.222c0-10.063-8.151-18.204-18.204-18.204s-18.204 8.141-18.204 18.204v109.222c0 70.256 57.159 127.425 127.425 127.425h109.222c10.053 0 18.204-8.141 18.204-18.204s-8.151-18.204-18.204-18.204zM894.277 38.704h-109.222c-10.064 0-18.204 8.151-18.204 18.204s8.14 18.204 18.204 18.204h109.222c50.182 0 91.019 40.834 91.019 91.019v109.231c0 10.045 8.14 18.204 18.204 18.204 10.063 0 18.204-8.16 18.204-18.204v-109.231c0-70.265-57.171-127.425-127.425-127.425zM166.13 220.741h91.019v291.267h-91.019v-291.267zM311.759 220.741h54.611v291.267h-54.611v-291.267zM420.981 220.741h91.019v291.267h-91.019v-291.267zM566.611 220.741h145.63v291.267h-145.63v-291.267zM766.852 220.741h91.019v291.267h-91.019v-291.267zM166.13 621.222h91.019v182.036h-91.019v-182.036zM311.759 621.222h54.611v182.036h-54.611v-182.036zM420.981 621.222h91.019v182.036h-91.019v-182.036zM566.611 621.222h145.63v182.036h-145.63v-182.036zM766.852 621.222h91.019v182.036h-91.019v-182.036zM985.296 566.611c0-10.063-8.141-18.204-18.204-18.204h-910.183c-10.053 0-18.204 8.141-18.204 18.204s8.151 18.204 18.204 18.204h910.183c10.063 0 18.204-8.141 18.204-18.204z" p-id="10706" fill="#ffffff"></path></svg>