<?xml version="1.0" encoding="utf-8"?>
<!-- Generator: Adobe Illustrator 15.0.0, SVG Export Plug-In . SVG Version: 6.00 Build 0)  -->
<!DOCTYPE svg PUBLIC "-//W3C//DTD SVG 1.1//EN" "http://www.w3.org/Graphics/SVG/1.1/DTD/svg11.dtd">
<svg version="1.1" id="图层_1" xmlns="http://www.w3.org/2000/svg" xmlns:xlink="http://www.w3.org/1999/xlink" x="0px" y="0px"
	 width="40px" height="40px" viewBox="0 0 40 40" enable-background="new 0 0 40 40" xml:space="preserve">
<path fill="#FFFFFF" d="M20.503,14.994c0.938,0.234,1.838-0.196,2.012-0.961c0.174-0.764-0.446-1.573-1.384-1.808
	c-0.938-0.234-1.838,0.197-2.011,0.961C18.946,13.952,19.565,14.76,20.503,14.994L20.503,14.994z M24.801,10.876
	c-2.261-1.353-3.502-0.982-3.482-0.038c0.015,0.705,0.656,0.88,1.226,1.154c1.936,0.93,2.979,2.359,2.449,3.52
	c-0.487,1.064-2.3,1.44-4.176,0.761c-1.921-0.694-4.439-2.349-4.778-0.483c-0.287,1.577,2.098,1.648,4.627,4.207
	c1.233,1.246,1.512,3.816,0.188,5.228c-1.399,1.493-4.841,1.042-6.445-0.772c-3.151-3.564-1.066-6.835-0.619-7.638
	c0.349-0.615,0.526-1.024,0.521-1.518c-0.01-0.798-0.565-1.322-1.337-1.369c-0.921-0.055-1.616,0.52-2,1.383
	c-4.009,9.013,4.638,16.991,12.35,14.039C31.038,26.396,32.464,15.462,24.801,10.876L24.801,10.876z"/>
</svg>
