<?xml version="1.0" encoding="utf-8"?>
<!-- Generator: Adobe Illustrator 15.0.0, SVG Export Plug-In . SVG Version: 6.00 Build 0)  -->
<!DOCTYPE svg PUBLIC "-//W3C//DTD SVG 1.1//EN" "http://www.w3.org/Graphics/SVG/1.1/DTD/svg11.dtd">
<svg version="1.1" id="图层_1" xmlns="http://www.w3.org/2000/svg" xmlns:xlink="http://www.w3.org/1999/xlink" x="0px" y="0px"
	 width="40px" height="40px" viewBox="0 0 40 40" enable-background="new 0 0 40 40" xml:space="preserve">
<path fill="#FFFFFF" d="M16.557,21.008c-0.584,0-1.058,0.474-1.058,1.058c0,2.482,2.019,4.502,4.501,4.502
	c2.481,0,4.501-2.02,4.501-4.502c0-0.584-0.474-1.058-1.058-1.058s-1.058,0.474-1.058,1.058c0,1.315-1.07,2.386-2.386,2.386
	s-2.385-1.07-2.385-2.386C17.615,21.481,17.141,21.008,16.557,21.008z"/>
<path fill="#FFFFFF" d="M26.442,14.278l-2.384-1.915l1.282-1.072c0.312-0.254,0.668-0.542,1.091-0.877
	c0.458-0.363,0.55-1.021,0.192-1.483c-0.355-0.463-0.987-0.533-1.458-0.192l-1.763,1.472l-0.877,0.812l-0.001,0
	c-0.021,0.013-0.037,0.022-0.037,0.022l0.008,0.006c-0.084,0.083-0.341,0.352-0.453,0.64c-0.096,0.239-0.151,0.481-0.146,0.691
	c-0.034,0.855,0.818,1.495,0.973,1.651l2.22,1.872c1.819,1.571,2.543,3.575,2.543,5.821c0,4.208-3.425,7.633-7.633,7.633
	c-4.208,0-7.632-3.425-7.632-7.633c0-2.246,0.724-4.25,2.542-5.821l2.221-1.872c0.154-0.157,1.006-0.796,0.972-1.651
	c0.006-0.21-0.05-0.452-0.145-0.691c-0.113-0.288-0.37-0.556-0.454-0.64l0.008-0.006c0,0-0.015-0.009-0.038-0.022v0l-0.877-0.812
	l-1.762-1.472c-0.471-0.341-1.103-0.271-1.459,0.192c-0.356,0.463-0.265,1.121,0.193,1.484c0.423,0.335,0.78,0.622,1.09,0.876
	l1.283,1.073l-2.384,1.915c-2.331,1.874-3.306,4.572-3.306,7.448c0,5.375,4.373,9.748,9.748,9.748s9.748-4.373,9.748-9.748
	C29.748,18.851,28.772,16.152,26.442,14.278z"/>
</svg>
