<?xml version="1.0" encoding="utf-8"?>
<!-- Generator: Adobe Illustrator 15.0.0, SVG Export Plug-In . SVG Version: 6.00 Build 0)  -->
<!DOCTYPE svg PUBLIC "-//W3C//DTD SVG 1.1//EN" "http://www.w3.org/Graphics/SVG/1.1/DTD/svg11.dtd">
<svg version="1.1" id="图层_1" xmlns="http://www.w3.org/2000/svg" xmlns:xlink="http://www.w3.org/1999/xlink" x="0px" y="0px"
	 width="48px" height="48px" viewBox="0 0 48 48" enable-background="new 0 0 48 48" xml:space="preserve">
<path d="M36.023,28.418c-0.516,0-1.015-0.048-1.502-0.13l-3.513,2.175v-3.62c-1.832-1.312-3.008-3.323-3.008-5.584
	c0-3.954,3.59-7.159,8.021-7.159s8.021,3.205,8.021,7.159C44.043,25.213,40.453,28.418,36.023,28.418L36.023,28.418z M36.023,15.123
	c-3.875,0-7.019,2.748-7.019,6.136c0,2.079,1.185,3.914,2.994,5.023l-0.031,2.37l2.359-1.444c0.544,0.118,1.106,0.188,1.692,0.188
	c3.875,0,7.02-2.746,7.02-6.139C43.041,17.87,39.896,15.123,36.023,15.123L36.023,15.123z"/>
</svg>
