<?xml version="1.0" encoding="utf-8"?>
<!-- Generator: Adobe Illustrator 15.0.0, SVG Export Plug-In . SVG Version: 6.00 Build 0)  -->
<!DOCTYPE svg PUBLIC "-//W3C//DTD SVG 1.1//EN" "http://www.w3.org/Graphics/SVG/1.1/DTD/svg11.dtd">
<svg version="1.1" id="图层_1" xmlns="http://www.w3.org/2000/svg" xmlns:xlink="http://www.w3.org/1999/xlink" x="0px" y="0px"
	 width="40px" height="40px" viewBox="0 0 40 40" enable-background="new 0 0 40 40" xml:space="preserve">
<path fill="#767676" d="M3.582,19.214L3.582,19.214c0,1.78,1.442,3.222,3.222,3.222c1.779,0,3.222-1.442,3.222-3.222l0,0l0,0
	c0-1.78-1.443-3.222-3.222-3.222C5.024,15.992,3.582,17.435,3.582,19.214S3.582,19.214,3.582,19.214z"/>
<path fill="#767676" d="M16.277,19.214c0,1.78,1.443,3.222,3.222,3.222s3.222-1.442,3.222-3.222s-1.442-3.222-3.222-3.222
	S16.277,17.435,16.277,19.214z"/>
<path fill="#767676" d="M28.972,19.214c0,1.78,1.442,3.222,3.222,3.222c1.78,0,3.223-1.442,3.223-3.222s-1.442-3.222-3.223-3.222
	C30.414,15.992,28.972,17.435,28.972,19.214z"/>
</svg>
