<?xml version="1.0" standalone="no"?><!DOCTYPE svg PUBLIC "-//W3C//DTD SVG 1.1//EN" "http://www.w3.org/Graphics/SVG/1.1/DTD/svg11.dtd"><svg t="1486517361862" class="icon" style="" viewBox="0 0 1024 1024" version="1.1" xmlns="http://www.w3.org/2000/svg" p-id="1691" xmlns:xlink="http://www.w3.org/1999/xlink" width="40" height="40"><defs><style type="text/css"></style></defs><path d="M433.06216 64.568575 98.739838 64.568575c-20.430308 0-37.147038 16.714683-37.147038 37.147038l0 334.323345c0 20.430308 16.71673 37.147038 37.147038 37.147038l334.323345 0c20.430308 0 37.147038-16.71673 37.147038-37.147038L470.210221 101.715613C470.209198 81.283258 453.492468 64.568575 433.06216 64.568575zM433.06216 436.038958 98.739838 436.038958 98.739838 101.715613l334.323345 0L433.063183 436.038958z" p-id="1692"></path><path d="M925.260162 64.568575 590.936817 64.568575c-20.430308 0-37.147038 16.714683-37.147038 37.147038l0 334.323345c0 20.430308 16.71673 37.147038 37.147038 37.147038l334.323345 0c20.430308 0 37.147038-16.71673 37.147038-37.147038L962.4072 101.715613C962.4072 81.283258 945.69047 64.568575 925.260162 64.568575zM925.260162 436.038958 590.936817 436.038958 590.936817 101.715613l334.323345 0L925.260162 436.038958z" p-id="1693"></path><path d="M433.06216 556.766576 98.739838 556.766576c-20.430308 0-37.147038 16.714683-37.147038 37.147038l0 334.323345c0 20.430308 16.71673 37.147038 37.147038 37.147038l334.323345 0c20.430308 0 37.147038-16.71673 37.147038-37.147038L470.210221 593.913615C470.209198 573.48126 453.492468 556.766576 433.06216 556.766576zM433.06216 928.235936 98.739838 928.235936 98.739838 593.913615l334.323345 0L433.063183 928.235936z" p-id="1694"></path><path d="M925.260162 556.766576 590.936817 556.766576c-20.430308 0-37.147038 16.714683-37.147038 37.147038l0 334.323345c0 20.430308 16.71673 37.147038 37.147038 37.147038l334.323345 0c20.430308 0 37.147038-16.71673 37.147038-37.147038L962.4072 593.913615C962.4072 573.48126 945.69047 556.766576 925.260162 556.766576zM925.260162 928.235936 590.936817 928.235936 590.936817 593.913615l334.323345 0L925.260162 928.235936z" p-id="1695"></path></svg>