<?xml version="1.0" encoding="utf-8"?>
<!-- Generator: Adobe Illustrator 15.0.0, SVG Export Plug-In . SVG Version: 6.00 Build 0)  -->
<!DOCTYPE svg PUBLIC "-//W3C//DTD SVG 1.1//EN" "http://www.w3.org/Graphics/SVG/1.1/DTD/svg11.dtd">
<svg version="1.1" id="图层_1" xmlns="http://www.w3.org/2000/svg" xmlns:xlink="http://www.w3.org/1999/xlink" x="0px" y="0px"
	 width="200px" height="200px" viewBox="0 0 200 200" enable-background="new 0 0 200 200" xml:space="preserve">
<path fill="#A6A6A6" d="M100.667,72.447c-15.646,0-28.083,13.298-28.083,30.028c0,16.731,12.438,30.027,28.083,30.027
	c15.646,0,28.083-13.296,28.083-30.027C128.75,85.746,116.313,72.447,100.667,72.447z M100.667,126.072
	c-12.036,0-22.065-10.727-22.065-23.597c0-12.868,10.03-23.592,22.065-23.592c12.036,0,22.065,10.724,22.065,23.592
	C122.732,115.346,112.703,126.072,100.667,126.072z M132.764,83.602c0,3.791,2.873,6.863,6.418,6.863c3.546,0,6.42-3.073,6.42-6.863
	c0-3.792-2.876-6.864-6.42-6.864C135.637,76.738,132.764,79.811,132.764,83.602z M144.798,63.869h-12.034l-2.809-9.01
	c-0.803-2.143-3.21-3.86-5.218-3.86H76.595c-2.407,0-4.414,1.717-5.216,3.86l-2.807,9.01H56.536c-6.82,0-12.036,5.577-12.036,12.868
	v60.06c0,7.292,5.616,12.868,12.036,12.868h88.262c6.821,0,12.036-5.576,12.036-12.868V76.738
	C156.834,69.446,151.619,63.869,144.798,63.869z M150.815,136.797c0,3.43-2.809,6.432-6.018,6.432H56.536
	c-3.209,0-6.018-3.002-6.018-6.432V76.738c0-3.431,2.809-6.435,6.018-6.435h12.036h4.414l1.202-4.289l2.81-8.581h47.34l2.809,8.581
	l1.204,4.289h4.414h12.034c3.209,0,6.018,3.003,6.018,6.435V136.797z"/>
</svg>
