<?xml version="1.0" encoding="utf-8"?>
<!-- Generator: Adobe Illustrator 15.0.0, SVG Export Plug-In . SVG Version: 6.00 Build 0)  -->
<!DOCTYPE svg PUBLIC "-//W3C//DTD SVG 1.1//EN" "http://www.w3.org/Graphics/SVG/1.1/DTD/svg11.dtd">
<svg version="1.1" id="图层_1" xmlns="http://www.w3.org/2000/svg" xmlns:xlink="http://www.w3.org/1999/xlink" x="0px" y="0px"
	 width="40px" height="40px" viewBox="0 0 40 40" enable-background="new 0 0 40 40" xml:space="preserve">
<path fill="#FFFFFF" d="M23.228,11.391c-1.027-0.825-1.996-1.232-3.058-1.232c-0.573,0-1.178,0.123-1.831,0.364
	c-0.659,0.241-1.848,1.178-2.378,2.603c0,0-0.937,3.134,1.671,5.58l0.214,0.225c1.403,1.425,3.412,2.212,3.422,4.451
	c0.092,1.778-1.484,3.519-3.374,3.599h-0.161c-0.964,0-1.81-0.364-2.126-0.6c-0.278-0.203-0.536-0.423-0.771-0.643
	c-0.268-0.38-1.585-2.1-0.294-4.204c0.583-0.872,1.562-1.774,2.578-2.486c-0.647-0.599-2.393-2.52-1.813-5.39
	c-7.346,5.912-3.406,13.34-0.24,15.144c1.2,0.809,2.758,1.227,4.381,1.227c2.56,0,5.28-1.022,7.053-3.133
	C29.001,23.923,30.779,17.121,23.228,11.391z"/>
</svg>
