<?xml version="1.0" encoding="utf-8"?>
<!-- Generator: Adobe Illustrator 15.0.0, SVG Export Plug-In . SVG Version: 6.00 Build 0)  -->
<!DOCTYPE svg PUBLIC "-//W3C//DTD SVG 1.1//EN" "http://www.w3.org/Graphics/SVG/1.1/DTD/svg11.dtd">
<svg version="1.1" id="图层_1" xmlns="http://www.w3.org/2000/svg" xmlns:xlink="http://www.w3.org/1999/xlink" x="0px" y="0px"
	 width="24px" height="24px" viewBox="0 0 24 24" enable-background="new 0 0 24 24" xml:space="preserve">
<path fill="#FFFFFF" d="M12,0.6c6.3,0,11.4,5.1,11.4,11.4S18.3,23.4,12,23.4S0.6,18.3,0.6,12S5.7,0.6,12,0.6 M12,0
	C5.37,0,0,5.37,0,12s5.37,12,12,12s12-5.37,12-12S18.63,0,12,0z"/>
<path fill="#FFFFFF" d="M6.9,10.2c-0.99,0-1.8,0.81-1.8,1.8s0.81,1.8,1.8,1.8c0.99,0,1.8-0.81,1.8-1.8S7.89,10.2,6.9,10.2z"/>
<path fill="#9CE7FD" d="M12,10.8c-0.66,0-1.2,0.54-1.2,1.2s0.54,1.2,1.2,1.2s1.2-0.54,1.2-1.2S12.66,10.8,12,10.8z"/>
<path fill="#FFFFFF" d="M12,10.2c-0.99,0-1.8,0.81-1.8,1.8s0.81,1.8,1.8,1.8s1.8-0.81,1.8-1.8S12.99,10.2,12,10.2z"/>
<path fill="#9CE7FD" d="M17.1,10.8c-0.66,0-1.199,0.54-1.199,1.2s0.539,1.2,1.199,1.2s1.2-0.54,1.2-1.2S17.76,10.8,17.1,10.8z"/>
<path fill="#FFFFFF" d="M17.1,10.2c-0.99,0-1.8,0.81-1.8,1.8s0.81,1.8,1.8,1.8S18.9,12.99,18.9,12S18.09,10.2,17.1,10.2z"/>
</svg>
