<?xml version="1.0" encoding="utf-8"?>
<!-- Generator: Adobe Illustrator 15.0.0, SVG Export Plug-In . SVG Version: 6.00 Build 0)  -->
<!DOCTYPE svg PUBLIC "-//W3C//DTD SVG 1.1//EN" "http://www.w3.org/Graphics/SVG/1.1/DTD/svg11.dtd">
<svg version="1.1" id="图层_1" xmlns="http://www.w3.org/2000/svg" xmlns:xlink="http://www.w3.org/1999/xlink" x="0px" y="0px"
	 width="24px" height="24px" viewBox="0 0 24 24" enable-background="new 0 0 24 24" xml:space="preserve">
<path fill="#FFFFFF" d="M12.455,9.537c0.13-0.131,0.277-0.215,0.443-0.253c0.164-0.039,0.317-0.031,0.461,0.022
	c0.142,0.054,0.261,0.154,0.355,0.3c0.098,0.146,0.145,0.334,0.145,0.564v5.195c0,0.208-0.033,0.402-0.104,0.588
	s-0.165,0.346-0.288,0.482c-0.122,0.14-0.269,0.246-0.438,0.323c-0.168,0.076-0.353,0.114-0.551,0.114h-5.52
	c-0.2,0-0.363-0.049-0.49-0.148c-0.127-0.101-0.213-0.224-0.259-0.369c-0.045-0.146-0.05-0.301-0.011-0.467
	c0.038-0.164,0.123-0.313,0.253-0.443c0.192-0.191,0.455-0.45,0.789-0.776s0.703-0.688,1.106-1.083
	c0.403-0.396,0.818-0.805,1.244-1.228c0.427-0.422,0.829-0.819,1.21-1.192s0.719-0.705,1.014-0.997S12.324,9.667,12.455,9.537z"/>
</svg>
