<?xml version="1.0" encoding="utf-8"?>
<!-- Generator: Adobe Illustrator 15.0.0, SVG Export Plug-In . SVG Version: 6.00 Build 0)  -->
<!DOCTYPE svg PUBLIC "-//W3C//DTD SVG 1.1//EN" "http://www.w3.org/Graphics/SVG/1.1/DTD/svg11.dtd">
<svg version="1.1" id="图层_1" xmlns="http://www.w3.org/2000/svg" xmlns:xlink="http://www.w3.org/1999/xlink" x="0px" y="0px"
	 width="200px" height="200px" viewBox="0 0 200 200" enable-background="new 0 0 200 200" xml:space="preserve">
<path fill="#FFFFFF" d="M142.563,97.338h-34.76V63.272c0-2.083-1.673-3.772-3.735-3.772c-2.065,0-3.737,1.689-3.737,3.772v34.066
	H65.572c-2.126,0-3.85,1.639-3.85,3.662c0,2.023,1.724,3.663,3.85,3.663h34.759v34.065c0,2.083,1.672,3.771,3.737,3.771
	c2.063,0,3.735-1.688,3.735-3.771v-34.065h34.76c2.126,0,3.849-1.64,3.849-3.663C146.412,98.978,144.689,97.338,142.563,97.338z"/>
</svg>
