<?xml version="1.0" encoding="utf-8"?>
<!-- Generator: Adobe Illustrator 15.0.0, SVG Export Plug-In . SVG Version: 6.00 Build 0)  -->
<!DOCTYPE svg PUBLIC "-//W3C//DTD SVG 1.1//EN" "http://www.w3.org/Graphics/SVG/1.1/DTD/svg11.dtd">
<svg version="1.1" id="图层_1" xmlns="http://www.w3.org/2000/svg" xmlns:xlink="http://www.w3.org/1999/xlink" x="0px" y="0px"
	 width="130px" height="130px" viewBox="0 0 130 130" enable-background="new 0 0 130 130" xml:space="preserve">
<path fill="#FFFFFF" d="M108.992,112.869H21.05l-4.632-2.992l-0.282-0.867c-0.133-0.419-1.322-4.248-0.089-8.213l0.12-0.404
	l0.252-0.344c2.865-3.949,10.021-7.913,17.606-12.102c6.948-3.845,17.429-9.648,17.488-12.73l0.015-2.916
	C44.907,65.854,41.27,57.072,41.27,47.438c0-14.899,2.82-30.142,23.767-30.142c20.946,0,23.766,15.243,23.766,30.142
	c0,9.634-3.637,18.429-10.258,24.863l0.017,2.977c0.058,3.037,10.553,8.84,17.486,12.686c7.571,4.203,14.742,8.152,17.591,12.102
	l0.252,0.344l0.135,0.404c1.216,3.979,0.044,7.794-0.09,8.228l-0.281,0.867l-4.66,2.962H108.992z M22.535,107.768h84.973
	l1.782-1.137c0.163-0.896,0.341-2.393-0.017-3.889c-2.447-2.978-9.173-6.702-15.676-10.308
	c-10.731-5.938-19.996-11.069-20.115-17.099l-0.014-5.265l0.832-0.763c6.071-5.535,9.426-13.299,9.426-21.871
	c0-15.856-3.059-25.042-18.689-25.042c-15.632,0-18.69,9.185-18.69,25.042c0,8.572,3.34,16.335,9.426,21.871l0.832,0.763
	l-0.015,5.206c-0.133,6.088-9.396,11.219-20.115,17.158c-6.517,3.604-13.242,7.33-15.691,10.307
	c-0.356,1.496-0.178,2.992-0.014,3.89L22.535,107.768L22.535,107.768z"/>
<path fill="#FFFFFF" d="M97.265,43.399H125.5v5.191H97.265V43.399z"/>
<path fill="#FFFFFF" d="M102.431,61.47H125.5v5.19h-23.069V61.47z"/>
<path fill="#FFFFFF" d="M110.09,79.6h15.41v5.146h-15.41V79.6z"/>
</svg>
