<?xml version="1.0" standalone="no"?><!DOCTYPE svg PUBLIC "-//W3C//DTD SVG 1.1//EN" "http://www.w3.org/Graphics/SVG/1.1/DTD/svg11.dtd"><svg t="1486369156098" class="icon" style="" viewBox="0 0 1024 1024" version="1.1" xmlns="http://www.w3.org/2000/svg" p-id="5811" xmlns:xlink="http://www.w3.org/1999/xlink" width="200" height="200"><defs><style type="text/css"></style></defs><path d="M928.388584 542.953989 94.531783 542.953989c-17.705969 0-32.073777-14.366196-32.073777-32.066323 0-17.705244 14.367808-32.072463 32.073777-32.072463l833.855778 0c17.7336 0 32.073777 14.368242 32.073777 32.072463C960.461338 528.587793 946.122184 542.953989 928.388584 542.953989L928.388584 542.953989zM832.17237 927.802054 639.746082 927.802054c-17.7336 0-32.072754-14.33959-32.072754-32.073486 0-17.732873 14.339154-32.072463 32.072754-32.072463l192.426288 0c17.705969 0 32.073777-14.366196 32.073777-32.066323L864.246147 671.238724c0-17.733896 14.334037-32.073486 32.0748-32.073486 17.7336 0 32.067637 14.33959 32.067637 32.073486l0 160.351058C928.388584 884.631836 885.22069 927.802054 832.17237 927.802054L832.17237 927.802054zM351.099486 927.802054l-160.358652 0c-53.04218 0-96.209051-43.171242-96.209051-96.212272L94.531783 671.238724c0-17.733896 14.366784-32.073486 32.067637-32.073486 17.704946 0 32.073777 14.33959 32.073777 32.073486l0 160.351058c0 17.700127 14.397485 32.066323 32.067637 32.066323l160.358652 0c17.705969 0 32.073777 14.33959 32.073777 32.072463C383.173263 913.462464 368.805455 927.802054 351.099486 927.802054L351.099486 927.802054zM126.600444 382.602931c-17.700853 0-32.067637-14.367219-32.067637-32.066323L94.532807 190.18555c0-53.045123 43.167894-96.211249 96.209051-96.211249l160.358652 0c17.705969 0 32.073777 14.367219 32.073777 32.072463 0 17.699104-14.367808 32.066323-32.073777 32.066323l-160.358652 0c-17.670152 0-32.067637 14.402011-32.067637 32.072463L158.674221 350.536608C158.674221 368.236735 144.305389 382.602931 126.600444 382.602931L126.600444 382.602931zM896.320948 382.602931c-17.740763 0-32.0748-14.367219-32.0748-32.066323L864.246147 190.18555c0-17.671475-14.367808-32.072463-32.073777-32.072463L639.746082 158.113087c-17.7336 0-32.072754-14.367219-32.072754-32.066323 0-17.705244 14.339154-32.072463 32.072754-32.072463l192.426288 0c53.04832 0 96.216214 43.166125 96.216214 96.211249L928.388584 350.536608C928.388584 368.236735 914.054547 382.602931 896.320948 382.602931L896.320948 382.602931zM896.320948 382.602931" p-id="5812" fill="#ffffff"></path></svg>