<?xml version="1.0" encoding="utf-8"?>
<!-- Generator: Adobe Illustrator 15.0.0, SVG Export Plug-In . SVG Version: 6.00 Build 0)  -->
<!DOCTYPE svg PUBLIC "-//W3C//DTD SVG 1.1//EN" "http://www.w3.org/Graphics/SVG/1.1/DTD/svg11.dtd">
<svg version="1.1" id="图层_1" xmlns="http://www.w3.org/2000/svg" xmlns:xlink="http://www.w3.org/1999/xlink" x="0px" y="0px"
	 width="200px" height="200px" viewBox="0 0 200 200" enable-background="new 0 0 200 200" xml:space="preserve">
<path fill="#CFE5F6" d="M157.355,150.219l-0.005-0.002v0.002H157.355c1.084,1.262,1.629,2.659,1.629,4.187
	c0,1.711-0.612,3.176-1.836,4.391c-1.1,1.127-2.636,1.827-4.334,1.827c-0.031,0-0.063,0-0.094-0.002
	c-0.723,0-1.423-0.113-2.103-0.337c-1.021-0.339-1.882-0.929-2.534-1.695l0.018,0.146l-33.603-33.636
	c-8.068,5.676-17.094,8.511-27.07,8.511c-0.999,0-2.017-0.047-3.059-0.132c-2.054-0.179-3.933-0.515-5.75-1
	c-5.656-0.377-13.111-3.548-19.254-8.313c-3.723-2.172-8.801-7.529-12.61-14.196c-3.099-5.162-5.192-11.266-5.846-17.79
	c0.345,4.002-0.382-0.518-0.438-5.197c0.036,1.603,0.003,0.609,0.003-0.393c0-2.813,0.254-5.566,0.744-8.237
	c1.187-7.359,4.204-14.138,8.573-19.838c2.17-4.039,9.101-10.211,17.372-13.977c-4.309,1.757,0.156-0.674,5.099-2.383
	c4.517-1.627,9.731-2.569,15.164-2.569h0.001c2.179,0,4.262,0.135,6.261,0.408c5.35,0.718,10.471,2.34,15.368,4.862
	c7.922,4.104,14.306,10.206,18.614,17.646c-1.563-3.504,1.678,1.717,3.9,7.751c2.222,6.036,3.198,12.16,2.927,18.372
	c-0.363,10.359-3.946,19.68-10.749,27.964l33.735,33.636h-0.129V150.219z M127.426,88.484c0.035-0.604,0.054-1.31,0.054-2.019
	c0-5.114-1.02-9.991-2.866-14.441c-2.174-5.707-5.681-10.75-10.138-14.77c3.47,3.313,1.138,0.815-1.535-1.393
	c-4.972-4.145-11.054-7.139-17.737-8.486c4.227,0.711-1.489-0.631-7.521-0.631c-1.621,0-3.22,0.097-4.79,0.286
	c-0.269-0.013-0.711,0.041-1.138,0.137l-0.715,0.114c-7.34,1.16-13.809,4.226-19.066,8.666c-3.938,2.442-9.136,9.138-11.836,16.986
	c-0.336-1.113-2.174,5.012-2.493,11.767c-0.319,6.755,0.927,13.016,3.739,18.778c3.431,7.489,9.001,13.51,15.934,17.432
	c-0.025,0.906,7.086,4.182,14.917,5.173c0.253,0.498,6.102,0.814,11.994-0.176c5.086-0.914,9.626-2.67,13.684-5.124
	c1.418-0.271,6.551-4.179,10.581-9.029c-1.562,2.591,2.887-2.883,5.759-9.214c-4.105,7.266-2.405,4.678-1.045,1.89v0.003
	c2.606-4.978,4.169-10.854,4.254-17.085L127.426,88.484z"/>
</svg>
