<?xml version="1.0" standalone="no"?><!DOCTYPE svg PUBLIC "-//W3C//DTD SVG 1.1//EN" "http://www.w3.org/Graphics/SVG/1.1/DTD/svg11.dtd"><svg t="1486365213206" class="icon" style="" viewBox="0 0 1024 1024" version="1.1" xmlns="http://www.w3.org/2000/svg" p-id="3300" xmlns:xlink="http://www.w3.org/1999/xlink" width="160" height="160"><defs><style type="text/css"></style></defs><path d="M533.836389 894.337058 533.836389 959.60147 565.760242 959.60147C583.397333 959.60147 597.679309 973.881054 597.679309 991.521737 597.679309 1009.16242 583.397333 1023.443196 565.760242 1023.443196L533.836389 1023.443196 469.995861 1023.443196 438.075597 1023.443196C420.434917 1023.443196 406.16371 1009.16242 406.16371 991.521737 406.16371 973.881054 420.434917 959.60147 438.075597 959.60147L469.995861 959.60147 469.995861 894.337058C312.414311 880.119693 179.005389 761.669993 150.821939 608.506092L214.663663 608.506092C243.70384 736.386969 365.231058 831.929992 501.917322 831.929992 638.603584 831.929992 760.128413 736.386969 789.169784 608.506092L853.010312 608.506092C824.828057 761.669993 691.429904 880.120891 533.836389 894.337058L533.836389 894.337058ZM501.917322 768.099035C378.515115 768.099035 278.494619 668.076146 278.494619 544.675135L278.494618 225.502409C278.494618 102.122937 378.515114 2.068937 501.917321 2.068937 625.318331 2.068937 725.340023 102.122937 725.340023 225.502409L725.340023 544.676331C725.338828 668.077344 625.318331 768.099035 501.917322 768.099035L501.917322 768.099035Z" p-id="3301" class="selected" fill="#78b5e4"></path></svg>