<?xml version="1.0" encoding="utf-8"?>
<!-- Generator: Adobe Illustrator 15.0.0, SVG Export Plug-In . SVG Version: 6.00 Build 0)  -->
<!DOCTYPE svg PUBLIC "-//W3C//DTD SVG 1.1//EN" "http://www.w3.org/Graphics/SVG/1.1/DTD/svg11.dtd">
<svg version="1.1" id="图层_1" xmlns="http://www.w3.org/2000/svg" xmlns:xlink="http://www.w3.org/1999/xlink" x="0px" y="0px"
	 width="200px" height="200px" viewBox="0 0 200 200" enable-background="new 0 0 200 200" xml:space="preserve">
<path fill="#1296DB" d="M169.781,25.038H30.223c-9.804,0-17.686,7.978-17.686,17.685v34.409c0,18.166,5.479,35.851,15.859,51.037
	c9.804,14.225,22.971,25.086,38.254,31.43v10.573c0,4.518,2.307,7.111,6.728,7.496c2.691,0.192,5.479,0.289,8.17,0.289l0,0
	c26.239,0,52.767-10.189,72.663-28.066c21.434-19.127,33.256-44.982,33.256-72.855V42.626
	C187.563,33.016,179.586,25.038,169.781,25.038z M20.227,42.627"/>
<path fill="#FFFFFF" d="M146.33,98.374c-1.923-1.154-4.422-0.481-5.672,1.442l-0.096-0.096
	c-7.112,12.015-17.686,19.223-31.525,21.434c-9.996,1.634-18.262-0.097-19.223-0.288c-15.955-4.902-27.297-14.609-33.929-29.027
	c-5.094-10.957-5.286-20.665-5.286-20.761h-0.096c-0.192-2.21-1.922-3.941-4.229-3.941c-2.307,0-4.133,1.826-4.229,4.133h0.096
	c0,0.673,0.289,11.341,5.863,23.836c5.286,11.631,16.436,26.912,39.407,33.929l0.288,0.096c0.289,0.097,5.287,1.249,12.495,1.249
	c2.979,0,6.247-0.191,9.804-0.768c16.436-2.5,29.411-11.342,37.869-25.471C149.117,102.025,148.348,99.527,146.33,98.374z"/>
<path fill="#FFFFFF" d="M153.826,67.04c-3.46,0-6.344,2.884-6.344,6.344c0,3.46,2.884,6.344,6.344,6.344
	c3.557,0,6.344-2.883,6.344-6.344C160.17,69.924,157.287,67.04,153.826,67.04z"/>
<path fill="#1296DB" d="M-73.5,146.5"/>
</svg>
