<?xml version="1.0" standalone="no"?><!DOCTYPE svg PUBLIC "-//W3C//DTD SVG 1.1//EN" "http://www.w3.org/Graphics/SVG/1.1/DTD/svg11.dtd"><svg t="1486189318656" class="icon" style="" viewBox="0 0 1024 1024" version="1.1" xmlns="http://www.w3.org/2000/svg" p-id="8929" xmlns:xlink="http://www.w3.org/1999/xlink" width="200" height="200"><defs><style type="text/css"></style></defs><path d="M869.282243 128.192637 154.739247 128.192637c-50.195216 0-90.548272 40.844244-90.548272 90.547249l0 176.174442c0 93.0083 28.049846 183.555549 81.198324 261.310448 50.195216 72.830749 117.613698 128.441301 195.859783 160.92104l0 54.131875c0 23.12979 11.811 36.415374 34.447557 38.383192 13.778818 0.985444 28.049846 1.475608 41.829687 1.475608l0 0c134.345778 0 270.168186-52.164057 372.034225-143.69675 109.74038-97.92938 170.269965-230.306316 170.269965-373.017622L959.830515 218.247676C960.322725 169.039951 919.477458 128.192637 869.282243 128.192637zM920.953066 394.917398c0 130.901329-55.608505 252.943896-156.982334 343.491145-94.977141 84.643796-221.449601 133.36238-345.95322 133.36238-12.30321 0-24.605398-0.49221-36.908608-1.475608l0-80.70509-12.794397-4.92108c-155.998937-58.560744-264.754896-218.98855-264.754896-390.241912L103.559611 218.252793c0-28.541033 23.128767-51.178613 51.179636-51.178613l714.050786 0c28.542056 0 51.671846 23.12979 51.671846 51.178613L920.461879 394.917398 920.953066 394.917398z" p-id="8930" fill="#8a8a8a"></path><path d="M749.207493 503.674381c-9.842159-5.906523-22.636556-2.461051-29.034267 7.382131l-0.49221-0.49221c-36.416398 61.514006-90.548272 98.42159-161.412227 109.739357-51.179636 8.366551-93.500511-0.49221-98.42159-1.475608-81.690534-25.097608-139.759067-74.801636-173.714414-148.617829-26.082028-56.099692-27.066449-105.803721-27.066449-106.295931l-0.49221 0c-0.984421-11.317767-9.842159-20.176528-21.653159-20.176528s-21.160949 9.349949-21.653159 21.159926l0.49221 0c0 3.445472 1.476631 58.06751 30.018687 122.042567 27.066449 59.546188 84.150562 137.790226 201.765283 173.71339l1.476631 0.49221c1.476631 0.49221 27.066449 6.396687 63.974034 6.396687 15.255449 0 31.987528-0.985444 50.195216-3.935636 84.150562-12.795421 150.585647-58.06751 193.890942-130.409119C763.478522 522.373255 759.541863 509.577834 749.207493 503.674381z" p-id="8931" fill="#8a8a8a"></path><path d="M787.591709 343.245552c-17.715477 0-32.479739 14.763239-32.479739 32.479739s14.763239 32.479739 32.479739 32.479739c18.207687 0 32.479739-14.763239 32.479739-32.479739C820.071448 358.00879 805.308209 343.245552 787.591709 343.245552z" p-id="8932" fill="#8a8a8a"></path></svg>