<?xml version="1.0" encoding="utf-8"?>
<!-- Generator: Adobe Illustrator 15.0.0, SVG Export Plug-In . SVG Version: 6.00 Build 0)  -->
<!DOCTYPE svg PUBLIC "-//W3C//DTD SVG 1.1//EN" "http://www.w3.org/Graphics/SVG/1.1/DTD/svg11.dtd">
<svg version="1.1" id="图层_1" xmlns="http://www.w3.org/2000/svg" xmlns:xlink="http://www.w3.org/1999/xlink" x="0px" y="0px"
	 width="200px" height="200px" viewBox="0 0 200 200" enable-background="new 0 0 200 200" xml:space="preserve">
<path fill="#1296DB" d="M78.381,187.535c-44.247,0-65.749-10.348-65.749-31.682c0-14.983,22.342-24.827,44.918-28.254v-1.277
	c-16.865-12.9-19.116-35.948-19.116-54.896c0-25.802,15.186-41.223,40.651-41.223h1.344c25.466,0,40.652,15.421,40.652,41.223
	c0,18.948-2.251,41.962-19.117,54.896v1.277c22.578,3.427,44.919,13.236,44.919,28.254
	C146.884,170.334,134.99,187.535,78.381,187.535z M80.43,42.735h-1.344"/>
<path fill="#1296DB" d="M175.609,149.168c-3.461,0-6.25-2.788-6.25-6.248c0-4.771-17.806-16.396-38.467-18.579
	c-3.192-0.336-5.611-3.024-5.611-6.216v-12.968c0-2.15,1.109-4.132,2.89-5.275c16.159-10.28,17.907-33.16,17.907-42.533
	c0-21.569-14.582-26.104-26.811-26.104c-3.461,0-6.249-2.789-6.249-6.249s2.788-6.249,6.249-6.249
	c24.257,0,39.309,14.782,39.309,38.602c0,10.885-2.084,36.855-20.797,51.034v4.334c19.956,3.628,44.078,15.622,44.078,30.203
	C181.892,146.38,179.069,149.168,175.609,149.168z"/>
</svg>
