<?xml version="1.0" encoding="utf-8"?>
<!-- Generator: Adobe Illustrator 15.0.0, SVG Export Plug-In . SVG Version: 6.00 Build 0)  -->
<!DOCTYPE svg PUBLIC "-//W3C//DTD SVG 1.1//EN" "http://www.w3.org/Graphics/SVG/1.1/DTD/svg11.dtd">
<svg version="1.1" id="图层_1" xmlns="http://www.w3.org/2000/svg" xmlns:xlink="http://www.w3.org/1999/xlink" x="0px" y="0px"
	 width="200px" height="200px" viewBox="0 0 200 200" enable-background="new 0 0 200 200" xml:space="preserve">
<path fill="#1296DB" d="M100,194.526c-25.104,0.033-49.187-9.941-66.916-27.716C15.308,149.083,5.333,125,5.369,99.895
	c-0.035-25.104,9.94-49.188,27.715-66.916C50.813,15.204,74.895,5.229,100,5.263c25.105-0.034,49.188,9.94,66.916,27.716
	c17.775,17.728,27.751,41.811,27.715,66.916c0.039,25.105-9.938,49.189-27.715,66.916c-17.725,17.784-41.809,27.767-66.916,27.736
	V194.526z"/>
<path fill="#FFFFFF" d="M142.969,75.011h-33.021V62.516H149.2v-5.347h-39.263V38.421H92.126v18.737H56.421v5.348h35.685V75H61.79
	v5.347h61.547c0,0.895-5.348,16.948-8.916,24.084c-45.495-17.842-58.884-7.137-62.453-5.348
	c-30.326,21.41-13.263,39.916,2.685,47.273c15.947,7.369,52.631-6.242,66.906-23.189c0.883,0.895,1.789,0.895,2.673,0.895
	c9.811,5.348,55.526,29.863,48.21,26.085l11.843-22.306c-7.137,0-35.968-11.811-54.705-18.053C139.4,91.947,142.958,75,142.958,75
	L142.969,75.011z M106.39,117.821c-22.306,28.547-49.063,19.632-53.526,17.842c-10.706-2.674-14.274-22.295-0.895-28.548
	c22.305-7.126,41.926,0.896,56.21,8.032C107.716,116.121,107.113,117.021,106.39,117.821z"/>
</svg>
