<?xml version="1.0" standalone="no"?><!DOCTYPE svg PUBLIC "-//W3C//DTD SVG 1.1//EN" "http://www.w3.org/Graphics/SVG/1.1/DTD/svg11.dtd"><svg t="1486188779782" class="icon" style="" viewBox="0 0 1024 1024" version="1.1" xmlns="http://www.w3.org/2000/svg" p-id="3837" xmlns:xlink="http://www.w3.org/1999/xlink" width="200" height="200"><defs><style type="text/css"></style></defs><path d="M512 995.974737a483.004632 483.004632 0 0 1-342.608842-141.904842A482.896842 482.896842 0 0 1 27.486316 511.461053a482.950737 482.950737 0 0 1 141.904842-342.608842A482.950737 482.950737 0 0 1 512 26.947368a482.950737 482.950737 0 0 1 342.608842 141.904843A482.896842 482.896842 0 0 1 996.513684 511.461053a482.789053 482.789053 0 0 1-141.904842 342.608842A482.896842 482.896842 0 0 1 512 996.082526zM512 87.632842a422.534737 422.534737 0 0 0-299.762526 124.173474A422.426947 422.426947 0 0 0 88.117895 511.461053a422.534737 422.534737 0 0 0 124.173473 299.762526A422.426947 422.426947 0 0 0 512 935.397053a422.480842 422.480842 0 0 0 299.762526-124.173474 422.319158 422.319158 0 0 0 124.119579-299.762526 422.426947 422.426947 0 0 0-124.173473-299.762527A422.373053 422.373053 0 0 0 512 87.632842z" p-id="3838" fill="#8a8a8a"></path><path d="M731.998316 384.053895H562.930526V320.080842h200.973474v-27.378526h-201.027368V196.715789H471.686737v95.932632H288.875789v27.378526h182.703158v63.973053H316.362105v27.378526h315.122527c0 4.581053-27.378526 86.770526-45.648843 123.311158-232.933053-91.351579-301.487158-36.540632-319.757473-27.378526-155.270737 109.621895-67.907368 204.368842 13.743158 242.041263 81.650526 37.726316 269.473684-31.959579 342.554947-118.730105 4.527158 4.581053 9.162105 4.581053 13.689263 4.581052 50.229895 27.378526 284.294737 152.899368 246.837895 133.551158l60.631579-114.202947c-36.540632 0-184.158316-60.469895-280.090947-92.429474 50.283789-91.351579 68.500211-178.122105 68.50021-178.122105z m-187.284211 219.189894c-114.202947 146.162526-251.203368 100.513684-274.054737 91.351579-54.810947-13.689263-73.081263-114.149053-4.581052-146.162526 114.202947-36.486737 214.662737 4.581053 287.797895 41.121684a56.589474 56.589474 0 0 1-9.162106 13.689263z" p-id="3839" fill="#8a8a8a"></path></svg>