<?xml version="1.0" standalone="no"?><!DOCTYPE svg PUBLIC "-//W3C//DTD SVG 1.1//EN" "http://www.w3.org/Graphics/SVG/1.1/DTD/svg11.dtd"><svg t="1486188955634" class="icon" style="" viewBox="0 0 1024 1024" version="1.1" xmlns="http://www.w3.org/2000/svg" p-id="6874" xmlns:xlink="http://www.w3.org/1999/xlink" width="200" height="200"><defs><style type="text/css"></style></defs><path d="M512 35.84C250.88 35.84 35.84 250.88 35.84 512s215.04 476.16 476.16 476.16 476.16-215.04 476.16-476.16S773.12 35.84 512 35.84z m0 901.12c-235.52 0-424.96-189.44-424.96-424.96 0-235.52 189.44-424.96 424.96-424.96 235.52 0 424.96 189.44 424.96 424.96 0 235.52-189.44 424.96-424.96 424.96z" p-id="6875" fill="#8a8a8a"></path><path d="M696.32 460.8c15.36 0 25.6-10.24 25.6-25.6s-10.24-25.6-25.6-25.6h-128L665.6 302.08c10.24-10.24 10.24-25.6 0-35.84s-25.6-10.24-35.84 0L512 399.36 394.24 271.36c-10.24-10.24-25.6-15.36-35.84-5.12-10.24 10.24-10.24 25.6 0 35.84L455.68 409.6H327.68c-15.36 0-25.6 15.36-25.6 25.6s10.24 25.6 25.6 25.6h158.72v102.4H327.68c-15.36 0-25.6 10.24-25.6 25.6s10.24 25.6 25.6 25.6h158.72v122.88c0 15.36 10.24 25.6 25.6 25.6s25.6-10.24 25.6-25.6V614.4h158.72c15.36 0 25.6-10.24 25.6-25.6s-10.24-25.6-25.6-25.6h-158.72V460.8h158.72z" p-id="6876" fill="#8a8a8a"></path></svg>